0
SECTION
2
HEADER
9
$INSUNITS
70
1
9
$ACADVER
1
AC1014
9
$HANDSEED
5
FFFF
0
ENDSEC
0
SECTION
2
TABLES
0
TABLE
2
VPORT
5
8
100
AcDbSymbolTable
0
ENDTAB
0
TABLE
2
LTYPE
5
5
100
AcDbSymbolTable
0
LTYPE
5
14
100
AcDbSymbolTableRecord
100
AcDbLinetypeTableRecord
2
BYBLOCK
70
0
0
LTYPE
5
15
100
AcDbSymbolTableRecord
100
AcDbLinetypeTableRecord
2
BYLAYER
70
0
0
ENDTAB
0
TABLE
2
LAYER
5
2
100
AcDbSymbolTable
70
2
0
LAYER
5
50
100
AcDbSymbolTableRecord
100
AcDbLayerTableRecord
2
0
70
0
6
CONTINUOUS
0
ENDTAB
0
TABLE
2
STYLE
5
3
100
AcDbSymbolTable
70
1
0
STYLE
5
11
100
AcDbSymbolTableRecord
100
AcDbTextStyleTableRecord
2
STANDARD
70
0
0
ENDTAB
0
TABLE
2
VIEW
5
6
100
AcDbSymbolTable
70
0
0
ENDTAB
0
TABLE
2
UCS
5
7
100
AcDbSymbolTable
70
0
0
ENDTAB
0
TABLE
2
APPID
5
9
100
AcDbSymbolTable
70
2
0
APPID
5
12
100
AcDbSymbolTableRecord
100
AcDbRegAppTableRecord
2
ACAD
70
0
0
ENDTAB
0
TABLE
2
DIMSTYLE
5
A
100
AcDbSymbolTable
70
1
0
ENDTAB
0
TABLE
2
BLOCK_RECORD
5
1
100
AcDbSymbolTable
70
1
0
BLOCK_RECORD
5
1F
100
AcDbSymbolTableRecord
100
AcDbBlockTableRecord
2
*MODEL_SPACE
0
BLOCK_RECORD
5
1B
100
AcDbSymbolTableRecord
100
AcDbBlockTableRecord
2
*PAPER_SPACE
0
ENDTAB
0
ENDSEC
0
SECTION
2
BLOCKS
0
BLOCK
5
20
100
AcDbEntity
100
AcDbBlockBegin
2
*MODEL_SPACE
0
ENDBLK
5
21
100
AcDbEntity
100
AcDbBlockEnd
0
BLOCK
5
1C
100
AcDbEntity
100
AcDbBlockBegin
2
*PAPER_SPACE
0
ENDBLK
5
1D
100
AcDbEntity
100
AcDbBlockEnd
0
ENDSEC
0
SECTION
2
ENTITIES
0
LWPOLYLINE
5
100
100
AcDbEntity
8
0
100
AcDbPolyline
90
8
70
1
43
0.0
10
6.0000000075092457
20
-1.9999999699630135
10
7.5092466234856846e-09
20
-1.9999999699630135
42
-0.41421356237309509
10
-0.49999999249075339
20
-1.4999999699630138
10
-0.49999999249075322
20
8.5000000300369845
42
-0.41421356237309509
10
7.5092464180312424e-09
20
9.0000000300369845
10
6.0000000075092457
20
9.0000000300369845
42
-0.41421356237309509
10
6.5000000075092466
20
8.5000000300369845
10
6.5000000075092466
20
-1.4999999699630135
42
-0.41421356237309509
0
CIRCLE
5
101
100
AcDbEntity
8
0
100
AcDbCircle
10
6.0000000075092457
20
-1.4999999699630135
30
0
40
0.066929133858267681
0
CIRCLE
5
102
100
AcDbEntity
8
0
100
AcDbCircle
10
7.5092464180312424e-09
20
-1.4999999699630135
30
0
40
0.066929133858267681
0
CIRCLE
5
103
100
AcDbEntity
8
0
100
AcDbCircle
10
6.0000000075092457
20
8.5000000300369845
30
0
40
0.066929133858267681
0
CIRCLE
5
104
100
AcDbEntity
8
0
100
AcDbCircle
10
7.5092464180312424e-09
20
8.5000000300369845
30
0
40
0.066929133858267681
0
CIRCLE
5
105
100
AcDbEntity
8
0
100
AcDbCircle
10
1.2500000075092466
20
5.2500000300369845
30
0
40
0.43749999999999989
0
LINE
5
106
100
AcDbEntity
8
0
100
AcDbLine
10
6.0000000075092457
20
9.0000000300369845
30
0
11
7.5092464180312424e-09
21
9.0000000300369845
31
0
0
LINE
5
107
100
AcDbEntity
8
0
100
AcDbLine
10
-0.49999999249075339
20
8.5000000300369845
30
0
11
-0.49999999249075339
21
-1.4999999699630138
31
0
0
CIRCLE
5
108
100
AcDbEntity
8
0
100
AcDbCircle
10
2.9999999549445202
20
5.2500000300369845
30
0
40
0.43749999999999989
0
LINE
5
109
100
AcDbEntity
8
0
100
AcDbLine
10
6.5000000075092466
20
-1.4999999699630135
30
0
11
6.5000000075092466
21
8.5000000300369845
31
0
0
LINE
5
110
100
AcDbEntity
8
0
100
AcDbLine
10
6.0000000075092457
20
9.0000000300369845
30
0
11
7.5092464180312424e-09
21
9.0000000300369845
31
0
0
CIRCLE
5
111
100
AcDbEntity
8
0
100
AcDbCircle
10
4.7499999549445198
20
5.2500000300369845
30
0
40
0.43750000000000044
0
LINE
5
112
100
AcDbEntity
8
0
100
AcDbLine
10
6.0000000075092457
20
9.0000000300369845
30
0
11
7.5092464180312424e-09
21
9.0000000300369845
31
0
0
LINE
5
113
100
AcDbEntity
8
0
100
AcDbLine
10
6.0000000075092457
20
9.0000000300369845
30
0
11
7.5092464180312424e-09
21
9.0000000300369845
31
0
0
CIRCLE
5
114
100
AcDbEntity
8
0
100
AcDbCircle
10
1.2499999549445202
20
0.50000003003698612
30
0
40
0.43750000000000017
0
LINE
5
115
100
AcDbEntity
8
0
100
AcDbLine
10
7.509246592869515e-09
20
-1.9999999699630135
30
0
11
6.0000000075092457
21
-1.9999999699630135
31
0
0
CIRCLE
5
116
100
AcDbEntity
8
0
100
AcDbCircle
10
4.7499999549445198
20
0.49999999249075339
30
0
40
0.13749999999999979
0
LINE
5
117
100
AcDbEntity
8
0
100
AcDbLine
10
7.509246592869515e-09
20
-1.9999999699630135
30
0
11
6.0000000075092457
21
-1.9999999699630135
31
0
0
CIRCLE
5
118
100
AcDbEntity
8
0
100
AcDbCircle
10
2.9999999549445202
20
3.5000000300369849
30
0
40
0.17499999999999985
0
CIRCLE
5
119
100
AcDbEntity
8
0
100
AcDbCircle
10
2.2999999549445205
20
2.8000000300369852
30
0
40
0.10000000000000002
0
CIRCLE
5
120
100
AcDbEntity
8
0
100
AcDbCircle
10
3.6999999549445195
20
2.8000000300369852
30
0
40
0.10000000000000002
0
CIRCLE
5
121
100
AcDbEntity
8
0
100
AcDbCircle
10
2.2999999549445205
20
4.2000000300369846
30
0
40
0.10000000000000002
0
CIRCLE
5
122
100
AcDbEntity
8
0
100
AcDbCircle
10
3.6999999549445195
20
4.2000000300369846
30
0
40
0.10000000000000002
0
ENDSEC
0
SECTION
2
OBJECTS
0
DICTIONARY
5
C
100
AcDbDictionary
3
ACAD_GROUP
350
D
3
ACAD_MLINESTYLE
350
17
0
DICTIONARY
5
D
100
AcDbDictionary
0
DICTIONARY
5
1A
330
C
100
AcDbDictionary
0
DICTIONARY
5
17
100
AcDbDictionary
0
ENDSEC
0
EOF
