0
SECTION
2
HEADER
9
$INSUNITS
70
1
9
$ACADVER
1
AC1014
9
$HANDSEED
5
FFFF
0
ENDSEC
0
SECTION
2
TABLES
0
TABLE
2
VPORT
5
8
100
AcDbSymbolTable
0
ENDTAB
0
TABLE
2
LTYPE
5
5
100
AcDbSymbolTable
0
LTYPE
5
14
100
AcDbSymbolTableRecord
100
AcDbLinetypeTableRecord
2
BYBLOCK
70
0
0
LTYPE
5
15
100
AcDbSymbolTableRecord
100
AcDbLinetypeTableRecord
2
BYLAYER
70
0
0
ENDTAB
0
TABLE
2
LAYER
5
2
100
AcDbSymbolTable
70
2
0
LAYER
5
50
100
AcDbSymbolTableRecord
100
AcDbLayerTableRecord
2
0
70
0
6
CONTINUOUS
0
ENDTAB
0
TABLE
2
STYLE
5
3
100
AcDbSymbolTable
70
1
0
STYLE
5
11
100
AcDbSymbolTableRecord
100
AcDbTextStyleTableRecord
2
STANDARD
70
0
0
ENDTAB
0
TABLE
2
VIEW
5
6
100
AcDbSymbolTable
70
0
0
ENDTAB
0
TABLE
2
UCS
5
7
100
AcDbSymbolTable
70
0
0
ENDTAB
0
TABLE
2
APPID
5
9
100
AcDbSymbolTable
70
2
0
APPID
5
12
100
AcDbSymbolTableRecord
100
AcDbRegAppTableRecord
2
ACAD
70
0
0
ENDTAB
0
TABLE
2
DIMSTYLE
5
A
100
AcDbSymbolTable
70
1
0
ENDTAB
0
TABLE
2
BLOCK_RECORD
5
1
100
AcDbSymbolTable
70
1
0
BLOCK_RECORD
5
1F
100
AcDbSymbolTableRecord
100
AcDbBlockTableRecord
2
*MODEL_SPACE
0
BLOCK_RECORD
5
1B
100
AcDbSymbolTableRecord
100
AcDbBlockTableRecord
2
*PAPER_SPACE
0
ENDTAB
0
ENDSEC
0
SECTION
2
BLOCKS
0
BLOCK
5
20
100
AcDbEntity
100
AcDbBlockBegin
2
*MODEL_SPACE
0
ENDBLK
5
21
100
AcDbEntity
100
AcDbBlockEnd
0
BLOCK
5
1C
100
AcDbEntity
100
AcDbBlockBegin
2
*PAPER_SPACE
0
ENDBLK
5
1D
100
AcDbEntity
100
AcDbBlockEnd
0
ENDSEC
0
SECTION
2
ENTITIES
0
LWPOLYLINE
5
100
100
AcDbEntity
8
0
100
AcDbPolyline
90
6
70
1
43
0.0
10
-0.39999700719874615
20
-3.5840764662231366
10
-0.20832703384841939
20
-3.5840696436839052
42
0.41420313680630066
10
-0.12499999999999691
20
-3.5007396437366958
10
-0.12499999999999697
20
-3.4992707437530601
42
0.41422398801666593
10
-0.20833296615155139
20
-3.4159407438058507
10
-0.40000299178769577
20
-3.4159475663468761
42
0.99999999999999989
0
LWPOLYLINE
5
101
100
AcDbEntity
8
0
100
AcDbPolyline
90
6
70
1
43
0.0
10
0.40000007721719077
20
-0.41670000120000023
10
0.20833000000000171
20
-0.41670000120000011
42
0.41421356237309515
10
0.12500000000000167
20
-0.50003000120000041
10
0.12500000000000167
20
-0.50003666780001432
42
0.41421356237308837
10
0.20832999999999968
20
-0.58336666780001445
10
0.39999994634361374
20
-0.583366667800019
42
0.99999985863518248
0
LWPOLYLINE
5
102
100
AcDbEntity
8
0
100
AcDbPolyline
90
6
70
1
43
0.0
10
0.94280904141707222
20
-0.75000000110000031
10
0.20833000000000179
20
-0.75000000110000031
42
0.41421356237309509
10
0.1250000000000018
20
-0.83333000110000044
10
0.12500000000000175
20
-0.8333366676999997
42
0.41421356237309492
10
0.20833000000000171
20
-0.91666666769999983
10
0.94280904141707222
20
-0.91666666769999983
42
0.99999999999999989
0
LWPOLYLINE
5
103
100
AcDbEntity
8
0
100
AcDbPolyline
90
6
70
1
43
0.0
10
1.2472191287464731
20
-1.0833333343000002
10
0.20833000000000196
20
-1.0833333343000002
42
0.41421356237309509
10
0.12500000000000194
20
-1.1666633343000004
10
0.12500000000000197
20
-1.1666700009000004
42
0.4142135623730947
10
0.20833000000000187
20
-1.2500000009000001
10
1.2472191287464731
20
-1.2500000008999999
42
0.99999999999999989
0
LWPOLYLINE
5
104
100
AcDbEntity
8
0
100
AcDbPolyline
90
6
70
1
43
0.0
10
1.4142135622316738
20
-1.4166666675000001
10
0.20833000000000204
20
-1.4166666675000001
42
0.41421356237309509
10
0.12500000000000208
20
-1.4999966675000003
10
0.12500000000000222
20
-1.5000033341000001
42
0.41421356237309509
10
0.20833000000000221
20
-1.5833333341000004
10
1.4142135622316738
20
-1.5833333341000004
42
0.99999999999999989
0
LWPOLYLINE
5
105
100
AcDbEntity
8
0
100
AcDbPolyline
90
6
70
1
43
0.0
10
1.4907119849402315
20
-1.7500000007000001
10
0.20833000000000221
20
-1.7500000007000001
42
0.41421356237309509
10
0.12500000000000222
20
-1.8333300007000002
10
0.12500000000000222
20
-1.8333366673
42
0.41421356237309509
10
0.20833000000000221
20
-1.9166666673000003
10
1.4907119849402315
20
-1.9166666673000003
42
0.99999999999999989
0
LWPOLYLINE
5
106
100
AcDbEntity
8
0
100
AcDbPolyline
90
6
70
1
43
0.0
10
1.4907119849402315
20
-2.0833333338999998
10
0.2083300000000024
20
-2.0833333338999998
42
0.41421356237309509
10
0.12500000000000239
20
-2.1666633338999999
10
0.12500000000000239
20
-2.1666700004999999
42
0.41421356237309509
10
0.2083300000000024
20
-2.2500000005
10
1.4907119849402315
20
-2.2500000005
42
0.99999999999999989
0
LWPOLYLINE
5
107
100
AcDbEntity
8
0
100
AcDbPolyline
90
6
70
1
43
0.0
10
1.414213562231674
20
-2.4166666670999999
10
0.20833000000000249
20
-2.4166666670999999
42
0.41421356237309509
10
0.1250000000000025
20
-2.4999966671
10
0.12500000000000239
20
-2.5000033337000001
42
0.41421356237309509
10
0.2083300000000024
20
-2.5833333337000002
10
1.4142135622316738
20
-2.5833333337000002
42
0.99999999999999989
0
LWPOLYLINE
5
108
100
AcDbEntity
8
0
100
AcDbPolyline
90
6
70
1
43
0.0
10
1.2472191287464731
20
-2.7500000003
10
0.20833000000000265
20
-2.7500000003
42
0.41421356237309509
10
0.12500000000000264
20
-2.8333300003000002
10
0.12500000000000266
20
-2.8333366668999997
42
0.4142135623730947
10
0.20833000000000257
20
-2.9166666668999999
10
1.2472191287464731
20
-2.9166666669000003
42
0.99999999999999989
0
LWPOLYLINE
5
109
100
AcDbEntity
8
0
100
AcDbPolyline
90
6
70
1
43
0.0
10
0.94280904141707222
20
-3.0833333335000002
10
0.20833000000000279
20
-3.0833333335000002
42
0.41421356237309509
10
0.12500000000000278
20
-3.1666633334999998
10
0.12500000000000269
20
-3.166670000099999
42
0.41421356237309515
10
0.20833000000000274
20
-3.2500000001
10
0.94280904141707222
20
-3.2500000001
42
0.99999999999999989
0
LWPOLYLINE
5
110
100
AcDbEntity
8
0
100
AcDbPolyline
90
6
70
1
43
0.0
10
-0.39999999999999997
20
-0.58336666780000013
10
-0.20832999999999921
20
-0.58336666780000468
42
0.41421356237310192
10
-0.1249999999999972
20
-0.50003666780000466
10
-0.12499999999999724
20
-0.50003000119999985
42
0.41421356237309509
10
-0.20832999999999724
20
-0.41670000119999995
10
-0.39999999999999997
20
-0.41670000119999984
42
0.99999999999999989
0
LWPOLYLINE
5
111
100
AcDbEntity
8
0
100
AcDbPolyline
90
6
70
1
43
0.0
10
-0.94280904141707222
20
-0.91666666769999983
10
-0.20832999999999718
20
-0.91666666769999983
42
0.41421356237309509
10
-0.12499999999999716
20
-0.83333666769999981
10
-0.1249999999999972
20
-0.83333000110000022
42
0.41421356237309492
10
-0.20832999999999716
20
-0.75000000110000031
10
-0.94280904141707222
20
-0.75000000110000031
42
0.99999999999999989
0
LWPOLYLINE
5
112
100
AcDbEntity
8
0
100
AcDbPolyline
90
6
70
1
43
0.0
10
-1.2472191287464731
20
-1.2500000009000001
10
-0.20832999999999716
20
-1.2500000009000001
42
0.41421356237309509
10
-0.12499999999999713
20
-1.1666700009000002
10
-0.12499999999999716
20
-1.1666633343000001
42
0.41421356237309509
10
-0.20832999999999716
20
-1.0833333343000002
10
-1.2472191287464731
20
-1.0833333342999998
42
0.99999999999999989
0
LWPOLYLINE
5
113
100
AcDbEntity
8
0
100
AcDbPolyline
90
6
70
1
43
0.0
10
-1.414213562231674
20
-1.5833333341000004
10
-0.20832999999999716
20
-1.5833333341000004
42
0.41421356237309509
10
-0.12499999999999709
20
-1.5000033341000001
10
-0.12499999999999697
20
-1.4999966675000003
42
0.41421356237309565
10
-0.20832999999999716
20
-1.4166666675000001
10
-1.4142135622316743
20
-1.4166666675000001
42
0.99999999999999989
0
LWPOLYLINE
5
114
100
AcDbEntity
8
0
100
AcDbPolyline
90
6
70
1
43
0.0
10
-1.4907119849402313
20
-1.9166666673000003
10
-0.20832999999999707
20
-1.9166666673000003
42
0.41421356237309509
10
-0.12499999999999706
20
-1.8333366673
10
-0.12499999999999716
20
-1.8333300007000002
42
0.41421356237309509
10
-0.20832999999999716
20
-1.7500000007000001
10
-1.4907119849402313
20
-1.7500000007000001
42
0.99999999999999989
0
LWPOLYLINE
5
115
100
AcDbEntity
8
0
100
AcDbPolyline
90
6
70
1
43
0.0
10
-1.4907119849402313
20
-2.2500000005
10
-0.20832999999999707
20
-2.2500000005
42
0.41421356237309509
10
-0.12499999999999704
20
-2.1666700004999999
10
-0.12499999999999716
20
-2.1666633338999999
42
0.41421356237309509
10
-0.20832999999999716
20
-2.0833333338999998
10
-1.4907119849402315
20
-2.0833333338999998
42
0.99999999999999989
0
LWPOLYLINE
5
116
100
AcDbEntity
8
0
100
AcDbPolyline
90
6
70
1
43
0.0
10
-1.4142135622316736
20
-2.5833333337000002
10
-0.20832999999999707
20
-2.5833333337000002
42
0.41421356237309509
10
-0.124999999999997
20
-2.5000033337000001
10
-0.12499999999999697
20
-2.4999966671
42
0.41421356237309565
10
-0.20832999999999716
20
-2.4166666670999999
10
-1.4142135622316738
20
-2.4166666670999999
42
0.99999999999999989
0
LWPOLYLINE
5
117
100
AcDbEntity
8
0
100
AcDbPolyline
90
6
70
1
43
0.0
10
-1.2472191287464731
20
-2.9166666668999999
10
-0.20832999999999696
20
-2.9166666668999999
42
0.41421356237309509
10
-0.12499999999999697
20
-2.8333366668999997
10
-0.12499999999999697
20
-2.8333300002999997
42
0.41421356237309509
10
-0.20832999999999696
20
-2.7500000003
10
-1.2472191287464731
20
-2.7500000003000005
42
0.99999999999999989
0
LWPOLYLINE
5
118
100
AcDbEntity
8
0
100
AcDbPolyline
90
6
70
1
43
0.0
10
-0.94280904141707222
20
-3.2500000001
10
-0.20832999999999696
20
-3.2500000001
42
0.41421356237309509
10
-0.12499999999999693
20
-3.1666700000999994
10
-0.12499999999999702
20
-3.1666633335000003
42
0.41421356237309492
10
-0.20832999999999696
20
-3.0833333335000002
10
-0.94280904141707222
20
-3.0833333335000002
42
0.99999999999999989
0
LWPOLYLINE
5
119
100
AcDbEntity
8
0
100
AcDbPolyline
90
8
70
1
43
0.0
10
3.5000000000000004
20
-4.9999999999999982
42
-0.41421356237309587
10
3.0000000000000009
20
-5.4999999999999982
10
-3.0000000000000009
20
-5.4999999999999982
42
-0.41421356237309587
10
-3.5000000000000004
20
-4.9999999999999982
10
-3.5000000000000004
20
4.9999999999999982
42
-0.41421356237309587
10
-3.0000000000000009
20
5.4999999999999982
10
3.0000000000000009
20
5.4999999999999982
42
-0.41421356237309587
10
3.5000000000000004
20
4.9999999999999982
0
CIRCLE
5
120
100
AcDbEntity
8
0
100
AcDbCircle
10
-3.0000000000000013
20
4.9999999999999991
30
0
40
0.067500000000000004
0
CIRCLE
5
121
100
AcDbEntity
8
0
100
AcDbCircle
10
3.0000000000000013
20
-4.9999999999999991
30
0
40
0.067500000000000004
0
CIRCLE
5
122
100
AcDbEntity
8
0
100
AcDbCircle
10
3.0000000000000013
20
4.9999999999999991
30
0
40
0.067500000000000004
0
CIRCLE
5
123
100
AcDbEntity
8
0
100
AcDbCircle
10
-3.0000000000000013
20
-4.9999999999999991
30
0
40
0.067500000000000004
0
CIRCLE
5
124
100
AcDbEntity
8
0
100
AcDbCircle
10
1.5
20
1.4999999999999987
30
0
40
0.47499999999999992
0
CIRCLE
5
125
100
AcDbEntity
8
0
100
AcDbCircle
10
-1.5
20
1.4999999999999984
30
0
40
0.47499999999999992
0
CIRCLE
5
126
100
AcDbEntity
8
0
100
AcDbCircle
10
0
20
1.4999999999999987
30
0
40
0.47499999999999992
0
LINE
5
127
100
AcDbEntity
8
0
100
AcDbLine
10
0.20832703384844853
20
-3.4159259126921167
30
0
11
0.39999700770552471
21
-3.4159190901529204
31
0
0
ARC
5
128
100
AcDbEntity
8
0
100
AcDbCircle
10
0.4000000000000003
20
-3.4999835400908141
30
0
40
0.084064449991149634
100
AcDbArc
50
-89.997960542839081
51
90.002039457161345
0
LINE
5
129
100
AcDbEntity
8
0
100
AcDbLine
10
0.40000299229447528
20
-3.5840479900287079
30
0
11
0.20833296615158034
21
-3.5840548125700558
31
0
0
ARC
5
130
100
AcDbEntity
8
0
100
AcDbCircle
10
0.20833000000000293
20
-3.5007248126228454
30
0
40
0.083330000000000001
100
AcDbArc
50
180
51
270.0020394571801
0
LINE
5
131
100
AcDbEntity
8
0
100
AcDbLine
10
0.12500000000000291
20
-3.5007248126228454
30
0
11
0.12500000000000291
21
-3.4992559126393261
31
0
0
ARC
5
132
100
AcDbEntity
8
0
100
AcDbCircle
10
0.20833000000000293
20
-3.4992559126393261
30
0
40
0.08332999999999996
100
AcDbArc
50
90.002039457164273
51
180
0
ENDSEC
0
SECTION
2
OBJECTS
0
DICTIONARY
5
C
100
AcDbDictionary
3
ACAD_GROUP
350
D
3
ACAD_MLINESTYLE
350
17
0
DICTIONARY
5
D
100
AcDbDictionary
0
DICTIONARY
5
1A
330
C
100
AcDbDictionary
0
DICTIONARY
5
17
100
AcDbDictionary
0
ENDSEC
0
EOF
