0
SECTION
2
HEADER
9
$INSUNITS
70
1
9
$ACADVER
1
AC1014
9
$HANDSEED
5
FFFF
0
ENDSEC
0
SECTION
2
TABLES
0
TABLE
2
VPORT
5
8
100
AcDbSymbolTable
0
ENDTAB
0
TABLE
2
LTYPE
5
5
100
AcDbSymbolTable
0
LTYPE
5
14
100
AcDbSymbolTableRecord
100
AcDbLinetypeTableRecord
2
BYBLOCK
70
0
0
LTYPE
5
15
100
AcDbSymbolTableRecord
100
AcDbLinetypeTableRecord
2
BYLAYER
70
0
0
ENDTAB
0
TABLE
2
LAYER
5
2
100
AcDbSymbolTable
70
2
0
LAYER
5
50
100
AcDbSymbolTableRecord
100
AcDbLayerTableRecord
2
0
70
0
6
CONTINUOUS
0
ENDTAB
0
TABLE
2
STYLE
5
3
100
AcDbSymbolTable
70
1
0
STYLE
5
11
100
AcDbSymbolTableRecord
100
AcDbTextStyleTableRecord
2
STANDARD
70
0
0
ENDTAB
0
TABLE
2
VIEW
5
6
100
AcDbSymbolTable
70
0
0
ENDTAB
0
TABLE
2
UCS
5
7
100
AcDbSymbolTable
70
0
0
ENDTAB
0
TABLE
2
APPID
5
9
100
AcDbSymbolTable
70
2
0
APPID
5
12
100
AcDbSymbolTableRecord
100
AcDbRegAppTableRecord
2
ACAD
70
0
0
ENDTAB
0
TABLE
2
DIMSTYLE
5
A
100
AcDbSymbolTable
70
1
0
ENDTAB
0
TABLE
2
BLOCK_RECORD
5
1
100
AcDbSymbolTable
70
1
0
BLOCK_RECORD
5
1F
100
AcDbSymbolTableRecord
100
AcDbBlockTableRecord
2
*MODEL_SPACE
0
BLOCK_RECORD
5
1B
100
AcDbSymbolTableRecord
100
AcDbBlockTableRecord
2
*PAPER_SPACE
0
ENDTAB
0
ENDSEC
0
SECTION
2
BLOCKS
0
BLOCK
5
20
100
AcDbEntity
100
AcDbBlockBegin
2
*MODEL_SPACE
0
ENDBLK
5
21
100
AcDbEntity
100
AcDbBlockEnd
0
BLOCK
5
1C
100
AcDbEntity
100
AcDbBlockBegin
2
*PAPER_SPACE
0
ENDBLK
5
1D
100
AcDbEntity
100
AcDbBlockEnd
0
ENDSEC
0
SECTION
2
ENTITIES
0
LWPOLYLINE
5
100
100
AcDbEntity
8
0
100
AcDbPolyline
90
4
70
1
43
0.0
10
2.4887097873651323
20
1.0016333762322971
10
3.0523939978914494
20
0.43794916570598025
10
3.2402887347335545
20
0.43794916570598019
10
2.4887097873651323
20
1.1895281130744022
0
LWPOLYLINE
5
101
100
AcDbEntity
8
0
100
AcDbPolyline
90
4
70
1
43
0.0
10
2.4887097873651323
20
0.62584390254808653
10
2.6766045242072383
20
0.43794916570598036
10
2.8644992610493443
20
0.43794916570598036
10
2.4887097873651323
20
0.81373863939019175
0
LWPOLYLINE
5
102
100
AcDbEntity
8
0
100
AcDbPolyline
90
4
70
1
43
0.0
10
2.4887097873651327
20
2.1290017972849284
10
3.5375760919991892
20
1.0801354926508724
10
3.5375760919991892
20
1.2680302294929777
10
2.4887097873651327
20
2.316896534127034
0
LWPOLYLINE
5
103
100
AcDbEntity
8
0
100
AcDbPolyline
90
4
70
1
43
0.0
10
3.2525760919991904
20
4.0079491657059805
42
-0.41421356237309787
10
3.5375760919991897
20
3.7229491657059808
10
3.5375760919991897
20
3.7090828610719253
10
3.2387097873651345
20
4.0079491657059805
0
LWPOLYLINE
5
104
100
AcDbEntity
8
0
100
AcDbPolyline
90
5
70
1
43
0.0
10
2.4887097873651323
20
1.753212323600718
10
3.5370050682655134
20
0.7049170427003375
42
0.015829546235046378
10
3.5375760919991892
20
0.72294916570598011
10
3.5375760919991892
20
0.89224075580876716
10
2.4887097873651327
20
1.9411070604428233
0
LWPOLYLINE
5
105
100
AcDbEntity
8
0
100
AcDbPolyline
90
4
70
1
43
0.0
10
3.5375760919991897
20
3.5215828610719253
10
3.051209787365134
20
4.0079491657059805
10
2.8637097873651336
20
4.0079491657059814
10
3.5375760919991897
20
3.3340828610719253
0
LWPOLYLINE
5
106
100
AcDbEntity
8
0
100
AcDbPolyline
90
4
70
1
43
0.0
10
2.4887097873651323
20
1.3774228499165075
10
3.39184063775898
20
0.47429199952266038
42
0.11826730775741859
10
3.4894931675950045
20
0.56453420652874065
10
2.4887097873651323
20
1.5653175867586129
0
LWPOLYLINE
5
107
100
AcDbEntity
8
0
100
AcDbPolyline
90
4
70
1
43
0.0
10
2.4887097873651327
20
2.8805807446533493
10
3.5375760919991897
20
1.8317144400192935
10
3.5375760919991897
20
2.0196091768613988
10
2.4887097873651327
20
3.0684754814954549
0
LWPOLYLINE
5
108
100
AcDbEntity
8
0
100
AcDbPolyline
90
4
70
1
43
0.0
10
2.4887097873651327
20
3.6321596920217707
10
3.5375760919991897
20
2.5832933873877142
10
3.5375760919991897
20
2.7711881242298197
10
2.4887097873651327
20
3.8200544288638758
0
LWPOLYLINE
5
109
100
AcDbEntity
8
0
100
AcDbPolyline
90
4
70
1
43
0.0
10
2.4887097873651327
20
3.25637021833756
10
3.5375760919991897
20
2.207503913703504
10
3.5375760919991897
20
2.3953986505456091
10
2.4887097873651327
20
3.4442649551796651
0
LWPOLYLINE
5
110
100
AcDbEntity
8
0
100
AcDbPolyline
90
4
70
1
43
0.0
10
2.4887097873651327
20
2.5047912709691391
10
3.5375760919991892
20
1.4559249663350828
10
3.5375760919991897
20
1.6438197031771882
10
2.4887097873651327
20
2.6926860078112442
0
LWPOLYLINE
5
111
100
AcDbEntity
8
0
100
AcDbPolyline
90
4
70
1
43
0.0
10
3.5375760919991897
20
3.1465828610719249
10
2.6762097873651332
20
4.0079491657059814
10
2.4887097873651327
20
4.0079491657059814
10
3.5375760919991897
20
2.9590828610719249
0
LWPOLYLINE
5
112
100
AcDbEntity
8
0
100
AcDbPolyline
90
4
70
1
43
0.0
10
1.8750760919991889
20
3.2179491657059809
10
1.8750760919991889
20
2.8479491657059803
10
2.0500760919991889
20
2.8479491657059803
10
2.0500760919991889
20
3.2179491657059809
0
LWPOLYLINE
5
113
100
AcDbEntity
8
0
100
AcDbPolyline
90
8
70
1
43
0.0
10
3.9375760919983009
20
0.72294916570598045
42
-0.4142135623726883
10
3.2525760919991891
20
0.037949165705980191
10
1.8175760919991895
20
0.037949165705980545
42
-0.41421356237309387
10
1.5775760919991897
20
0.27794916570598005
10
1.577576091999189
20
4.1679491657059806
42
-0.41421356237309509
10
1.817576091999189
20
4.4079491657059808
10
3.2525760919991895
20
4.4079491657059799
42
-0.41421356237309653
10
3.9375760919991896
20
3.7229491657059808
0
CIRCLE
5
114
100
AcDbEntity
8
0
100
AcDbCircle
10
2.0400760919991892
20
1.3479491657059803
30
0
40
0.15999999999999984
0
LWPOLYLINE
5
115
100
AcDbEntity
8
0
100
AcDbPolyline
90
4
70
1
43
0.0
10
1.9150760919991894
20
2.5379491657059803
10
1.9150760919991894
20
1.8679491657059806
10
2.2050760919991892
20
1.8679491657059806
10
2.2050760919991892
20
2.5379491657059803
0
ENDSEC
0
SECTION
2
OBJECTS
0
DICTIONARY
5
C
100
AcDbDictionary
3
ACAD_GROUP
350
D
3
ACAD_MLINESTYLE
350
17
0
DICTIONARY
5
D
100
AcDbDictionary
0
DICTIONARY
5
1A
330
C
100
AcDbDictionary
0
DICTIONARY
5
17
100
AcDbDictionary
0
ENDSEC
0
EOF
